<!--?xml version="1.0" encoding="utf-8"?-->
<!-- Generator: Adobe Illustrator 18.1.1, SVG Export Plug-In . SVG Version: 6.00 Build 0)  -->

<svg version="1.1" id="_x31_0" xmlns="http://www.w3.org/2000/svg" xmlns:xlink="http://www.w3.org/1999/xlink" x="0px" y="0px" viewBox="0 0 512 512" style="width: 32px; height: 32px; opacity: 1;" xml:space="preserve">
<style type="text/css">
	.st0{fill:#374149;}
</style>
<g>
	<path class="st0" d="M193.84,58.244H22.023c-11.602,0-21.007,9.41-21.007,21.012v149.258c0,14.086,11.414,25.5,25.5,25.5h72.046
		c2.481,0,4.492,2.012,4.492,4.492c0,46.09-37.363,83.454-83.453,83.454C8.778,341.959,0,350.736,0,361.561v72.598
		c0,10.824,8.778,19.598,19.602,19.598h0.004c107.832,0,195.246-87.414,195.246-195.246V79.256
		C214.851,67.654,205.446,58.244,193.84,58.244z" style="fill: rgba(16, 185, 129, 0.4);"></path>
	<path class="st0" d="M490.992,58.244H319.176c-11.606,0-21.012,9.41-21.012,21.012v149.258c0,14.086,11.418,25.5,25.504,25.5
		h72.047c2.48,0,4.492,2.012,4.492,4.492c0,46.09-37.363,83.454-83.454,83.454c-10.824,0-19.602,8.777-19.602,19.602v72.598
		c0,10.824,8.778,19.598,19.602,19.598l0,0C424.586,453.756,512,366.342,512,258.51V79.256
		C512,67.654,502.594,58.244,490.992,58.244z" style="fill: rgba(16, 185, 129, 0.4);"></path>
</g>
</svg>
